<svg width="40" height="41" viewBox="0 0 40 41" fill="none" xmlns="http://www.w3.org/2000/svg">
<path d="M11.6667 27.1665C10.025 27.1684 8.44042 26.5644 7.21645 25.4704C5.99247 24.3764 5.21519 22.8692 5.03352 21.2377C4.85184 19.6061 5.27855 17.9649 6.23189 16.6284C7.18523 15.2919 8.59817 14.3542 10.2 13.9949C9.73654 11.8334 10.1507 9.57627 11.3514 7.72013C12.5521 5.86399 14.441 4.56085 16.6025 4.09738C18.764 3.63392 21.0211 4.04809 22.8773 5.24879C24.7334 6.4495 26.0365 8.33837 26.5 10.4999H26.6667C28.7333 10.4978 30.7269 11.2637 32.2606 12.6488C33.7942 14.034 34.7585 15.9396 34.9662 17.9957C35.1739 20.0518 34.6102 22.1118 33.3845 23.7757C32.1588 25.4395 30.3586 26.5886 28.3333 26.9999M25 22.1665L20 17.1665M20 17.1665L15 22.1665M20 17.1665V37.1665" stroke="#9CA3AF" stroke-width="2" stroke-linecap="round" stroke-linejoin="round"/>
</svg>
